<svg preserveAspectRatio="none" viewBox="0 0 600 400" fill="none" xmlns="http://www.w3.org/2000/svg">
    <circle cx="220.5" cy="187.5" r="173.5" fill="#FDF7E9"/>
    <path d="m48.8 74.46-1.85.33-2.13.4-2.78.5-1.6.31-1.73.33c-.6.11-1.2.24-1.84.35l-1.93.39-2.03.4-2.07.42a187.04 187.04 0 0 0-4.3.88l-2.2.46-2.2.47-2.18.46-2.15.47-2.08.46-2.03.44-1.93.44-1.81.4a567.56 567.56 0 0 0-5.7 1.31l-2.2.51.44 1.56.5 1.8.64 2.33a763.71 763.71 0 0 0 1.62 5.84l.92 3.3a996.43 996.43 0 0 0 1.88 6.86l.92 3.33.84 3.12.76 2.8.63 2.36.49 1.84.42 1.6M48.8 74.46l.42 1.58.49 1.81.63 2.36.74 2.8.83 3.13.88 3.35.91 3.47.92 3.51.9 3.42.83 3.22c.25 1.03.5 2 .74 2.9.21.9.43 1.72.6 2.46l.5 1.92.4 1.67m-9.79-37.6 1.83-.33 2.1-.37 2.7-.47a201.33 201.33 0 0 0 3.18-.55l1.73-.29 1.8-.3 1.88-.3 1.92-.32 1.97-.3 2-.3 1.97-.28 1.98-.29 1.94-.27 1.9-.26 1.85-.24 1.77-.23 1.67-.2 1.57-.2 2.73-.32 2.14-.24 1.87-.21m-79.17 52.74s.83-.2 2.28-.51c.73-.17 1.6-.38 2.6-.6l3.28-.75c.6-.14 1.23-.3 1.87-.43l1.96-.45c.67-.17 1.36-.31 2.06-.47l2.11-.46 2.17-.47 2.2-.46c.72-.14 1.46-.3 2.19-.43l2.17-.44 2.15-.42 2.1-.39 2.02-.37c.66-.12 1.32-.23 1.96-.36.64-.08 1.27-.19 1.88-.3l1.79-.26c.58-.08 1.13-.18 1.67-.25.53-.08 1.05-.15 1.54-.24.99-.12 1.88-.25 2.67-.36l2.04-.24c1.12-.14 1.76-.2 1.76-.2m-46.47 8.86.42 1.6.49 1.83.61 2.4a416.22 416.22 0 0 1 1.52 6.02l.84 3.41.84 3.56.8 3.59a273.35 273.35 0 0 1 2.4 12.34l.3 2c.17 1.1.25 1.74.25 1.74m38-47.36.41 1.68.47 1.94.6 2.52.69 3c.24 1.08.5 2.2.75 3.38l.8 3.64.8 3.8c.26 1.3.52 2.6.76 3.9.23 1.28.45 2.57.65 3.81a235.94 235.94 0 0 1 .96 6.98l.31 2.84.21 2.23.16 1.95m-7.57-41.67 1.74-.2c.55-.04 1.22-.13 1.98-.2l2.55-.26c.46-.04.94-.09 1.44-.12l1.53-.15 1.62-.12 1.68-.14 1.74-.14c.6-.03 1.18-.09 1.78-.12.6-.05 1.2-.1 1.8-.13.6-.03 1.21-.05 1.82-.1l1.8-.1 1.78-.11 1.75-.1 1.71-.08 1.68-.1 1.63-.08a88.7 88.7 0 0 1 1.55-.08l1.44-.05 2.58-.1 2.03-.06 1.78-.06M91.29 68.2l.21 1.7.27 1.98a184.77 184.77 0 0 0 .82 5.61l.5 3.42.55 3.66.56 3.82c.2 1.3.4 2.6.62 3.86l.6 3.76.63 3.54.62 3.22.53 2.73.43 2.13.37 1.84M91.29 68.2l1.89-.21 2.2-.24a414.79 414.79 0 0 0 4.5-.49l1.75-.18 1.84-.2 1.92-.2 2-.22 2.03-.22a297.37 297.37 0 0 1 6.36-.74l2.12-.24 2.1-.24a604.73 604.73 0 0 0 4.08-.46l1.92-.22 1.84-.2 1.71-.22 3.01-.35 2.32-.28 2.06-.24m-70.78 90.7h-1.65l-1.88.01-2.45.04-1.39.05-1.5.03-1.61.06-1.7.08-1.8.1-1.83.13-1.9.19c-.65.06-1.3.12-1.97.2l-2 .2-2.08.26a147.11 147.11 0 0 0-4.36.73l-2.18.4-2.15.41c-.71.15-1.41.3-2.1.43l-2.01.42-3.6.76-2.86.64-2.55.54m45.57-5.69.14 1.96c.04.64.09 1.39.13 2.27m-.27-4.23h5.99l1.41.03 1.53.03 1.6.04 1.68.04 1.77.06 1.81.05 1.86.08 1.9.09 1.88.08 1.9.09 1.86.09 1.83.09 1.78.12 1.72.11 1.63.1 1.54.1 2.7.18 2.13.16 1.88.15M98 109.46l.36 1.88.42 2.13.58 2.8.69 3.36.77 3.78.82 4.07.83 4.25.83 4.3.79 4.22a944.45 944.45 0 0 1 1.3 7.6c.2 1.13.36 2.16.5 3.09l.37 2.38.3 2.1M98 109.46s.64 0 1.78-.04l2.06-.06c.82 0 1.73-.04 2.75-.04.5-.02 1.03-.01 1.58-.04l1.7-.01c.58-.02 1.18-.02 1.81-.02.62-.02 1.25-.01 1.9-.03l2 .01 2.05-.01h2.1l2.13.02h2.17l2.2.03 2.2.02 2.19.02h2.11l2.03.02 1.93.02c.62.03 1.22.04 1.8.04 1.17.02 2.23.04 3.18.03h2.5l2.19.01m-123.77 50 .23 1.75.22 2.04a106.52 106.52 0 0 1 .45 5.86l.1 3.64c0 1.28-.03 2.6-.1 3.96a112.83 112.83 0 0 1-.91 8.39c-.2 1.4-.42 2.77-.63 4.1l-.63 3.86-.6 3.46-.54 2.92-.42 2.25-.37 1.97m49.04-45.67c.05.88.09 1.88.13 2.96m-.13-2.96.13 2.96m0 0a335.48 335.48 0 0 1 .13 7.56c0 1.4 0 2.85-.02 4.33a275.57 275.57 0 0 1-.6 13.5c-.1 1.45-.2 2.84-.31 4.18l-.34 3.74c-.12 1.17-.23 2.23-.31 3.18-.1.95-.2 1.77-.26 2.46L64.6 202m0 0-1.86-.07-2.12-.07-2.77-.06-1.59-.03c-.55 0-1.12 0-1.7-.02h-1.79l-1.85.01-1.95.03c-.67 0-1.34 0-2.03.02-.68.01-1.38.04-2.08.04l-2.13.06-2.14.07-2.18.1-2.18.08-2.18.11-2.12.14-2.08.13-2.01.15-1.92.14-3.41.31-2.71.25-2.41.24m47.2-1.63s-.08.79-.25 2.14l-.3 2.46-.42 3.18-.52 3.77-.6 4.21-.67 4.5-.74 4.66-.75 4.65-.74 4.5c-.25 1.45-.49 2.87-.7 4.2l-.62 3.76-.52 3.17-.41 2.44-.36 2.13M64.6 202l1.86.08a406.24 406.24 0 0 1 4.83.22l1.58.1c.55.02 1.12.04 1.7.08l1.79.12 1.87.12 1.95.15 2.02.16 2.05.17 2.07.2 2.09.22 2.09.22c.68.09 1.37.16 2.05.24l2.02.26 1.97.24 1.88.24 1.8.22 1.68.2 2.97.35 2.34.3 2.03.24m-2.67-50.7a285.05 285.05 0 0 0 .63 4.52l.4 3.17c.13 1.16.28 2.41.42 3.76l.43 4.23.38 4.56a375.66 375.66 0 0 1 .51 9.5c.05 1.57.1 3.13.12 4.63a217.67 217.67 0 0 1 .02 8.24l-.07 3.3-.08 2.57c-.05 1.43-.1 2.22-.1 2.22m-2.66-50.7 1.9.14 2.2.18 2.92.26 1.7.15 1.82.17 1.95.17 2.03.2 2.13.2 2.2.2 2.24.24 2.28.21 2.28.22 2.28.23c.75.08 1.5.16 2.23.22l2.2.23 2.16.21c.71.08 1.41.15 2.1.2.7.07 1.37.14 2.03.19l1.92.18c1.23.11 2.36.2 3.36.3 1 .08 1.87.14 2.59.21 1.43.14 2.25.2 2.25.2M17.39 203.63l-.37 1.95-.44 2.25-.57 2.92a839.34 839.34 0 0 1-2.27 11.37 1010.46 1010.46 0 0 1-1.72 8.44l-.84 4.07-.79 3.81a1033 1033 0 0 0-.7 3.4l-.6 2.88-.47 2.2-.4 1.94m48.77 2.9-1.96-.23-2.24-.25c-.86-.1-1.84-.19-2.9-.3l-1.67-.19c-.58-.05-1.18-.1-1.8-.17-.63-.06-1.26-.13-1.92-.18l-2-.19-2.12-.18-2.17-.19-2.21-.14-2.25-.15-2.27-.12-2.28-.11-2.27-.1c-.76-.02-1.5-.06-2.24-.1-.74-.01-1.47-.05-2.19-.07l-2.12-.07-2.01-.05-1.9-.04-3.34-.04-2.61-.03h-2.3m48.77 2.9-.36 2.12-.42 2.43-.53 3.14a528.75 528.75 0 0 0-1.33 7.85l-.77 4.4a1047.05 1047.05 0 0 0-1.5 8.93c-.2 1.45-.42 2.86-.62 4.23a699.74 699.74 0 0 0-1 7.32l-.31 2.82a627.17 627.17 0 0 0-.38 4.06m7.22-47.3 1.94.23 2.21.26c.86.1 1.82.23 2.88.38.54.06 1.1.15 1.66.21.58.1 1.17.18 1.78.26l1.88.27c.63.08 1.3.19 1.95.28.66.11 1.34.22 2.03.31l2.07.32 2.1.33 2.1.31 2.1.3 2.13.34c.7.1 1.38.2 2.08.32.7.1 1.4.2 2.07.32.68.1 1.35.2 2 .32l1.93.31 1.85.3 1.73.27 3.08.54a219.94 219.94 0 0 1 4.55.78m6.12-52.59-.1 2.24-.15 2.58-.24 3.34a377.21 377.21 0 0 1-.73 8.38 342.32 342.32 0 0 1-2.38 19.3l-.65 4.49a478.08 478.08 0 0 1-1.12 7.38l-.4 2.6-.35 2.28m6.12-52.59 2.03.28 2.36.3c.92.13 1.96.26 3.1.4l1.8.26c.61.07 1.26.17 1.92.26l2.06.28a191.97 191.97 0 0 0 4.4.61c.76.11 1.53.2 2.3.33l2.38.32 2.43.34 2.42.35 2.4.37c.8.1 1.61.22 2.42.34.8.1 1.6.2 2.4.32l2.39.31 2.3.3 2.22.28c.72.07 1.42.16 2.11.24l3.73.37a1012.11 1012.11 0 0 0 5.47.5M8.22 248.85l-.4 1.92-.47 2.22-.6 2.87c-.22 1.05-.47 2.19-.71 3.4a1373.59 1373.59 0 0 0-1.56 7.77l-.8 4.1a806.62 806.62 0 0 0-1.45 7.98l-.63 3.64-.56 3.24-.45 2.7-.32 2.07-.27 1.78s.81.04 2.24.14l2.56.2 3.28.25 1.85.16c.64.06 1.3.11 2 .19l2.09.22 2.17.26 2.23.27 2.27.29 2.3.3 2.29.34 2.28.32 2.3.36 2.24.35 2.2.34c.7.1 1.41.23 2.1.34l2.03.34 1.91.3 1.78.29a237.11 237.11 0 0 0 5.53.92l2.12.33m0 0a281.86 281.86 0 0 0 4.6.77l3.23.58 1.86.32 1.98.35 2.11.37 2.2.4 2.3.4c.77.14 1.55.29 2.34.42l2.4.44c.8.15 1.6.28 2.41.44.8.13 1.62.29 2.42.43l2.41.43 2.36.4c.78.14 1.55.3 2.32.43l2.26.43c.74.12 1.47.26 2.18.4l2.06.37a314.24 314.24 0 0 1 5.36.97l2.62.47 2.3.43m1.62-49.59-.35 2.26-.4 2.6a58 58 0 0 0-.37 3.29c-.07 1.15-.13 2.39-.18 3.71l-.16 4.17a608.67 608.67 0 0 0-.3 9l-.12 4.59a204.67 204.67 0 0 0-.02 8.6c.01 1.3.03 2.56.06 3.71l.07 3.14.07 2.4c.04 1.35.09 2.12.09 2.12m1.61-49.59 2.15.38 2.5.43c1 .17 2.13.33 3.4.52l2.04.24 2.25.22c.78.09 1.56.17 2.39.24a184.23 184.23 0 0 0 5.06.52l2.64.28c.9.1 1.82.18 2.73.29.91.1 1.84.18 2.76.29l2.78.3c.92.12 1.83.21 2.75.31l2.7.3 2.62.3 2.53.3 2.41.29 2.28.27 2.12.23c1.35.18 2.59.32 3.68.46l2.83.33 2.45.3m-58.69 42.8s.83.14 2.3.42c.74.12 1.63.3 2.66.48l3.46.64c.62.1 1.3.24 1.97.37l2.12.39 2.24.41 2.33.44 2.43.44c.82.16 1.64.32 2.47.46l2.52.5c.85.15 1.7.3 2.55.47l2.57.48 2.54.48 2.5.48 2.44.46 2.38.46 2.28.44 2.16.41a475.53 475.53 0 0 1 5.54 1.1l2.7.52 2.36.47m-19.07-255.6.1 1.9.14 2.2.18 2.87.3 3.42.47 3.81a265.04 265.04 0 0 0 1.27 8.4l.78 4.33a327.2 327.2 0 0 0 1.66 8.25c.26 1.28.53 2.5.77 3.63.25 1.13.48 2.17.7 3.08l.55 2.4.5 2.1m-7.42-46.39 2.05-.25a306 306 0 0 0 5.45-.7l1.77-.22 1.9-.25 2.02-.26 2.11-.28 2.18-.28 2.22-.3 2.27-.29a3478.28 3478.28 0 0 1 6.85-.87l2.24-.28 2.19-.27 2.1-.26 2.03-.25 1.92-.23 1.79-.22 3.13-.38 2.4-.28 2.11-.25m-41.31 52.51.48 2.1.57 2.41.73 3.15.86 3.75.96 4.2 1.02 4.52c.34 1.55.7 3.11 1.04 4.7.35 1.58.7 3.17 1.02 4.73.34 1.56.68 3.11.99 4.6l.9 4.34c.3 1.38.56 2.69.8 3.9.25 1.2.46 2.32.67 3.3.19 1 .35 1.86.5 2.58l.43 2.23m-10.97-50.5 2.18-.03c.7 0 1.53-.03 2.5-.03l3.25-.05 1.86-.04 1.99-.05c.68-.03 1.38-.06 2.1-.07l2.17-.07c.74-.03 1.5-.05 2.27-.06l2.32-.1 2.38-.1c.8-.03 1.58-.09 2.38-.12.8-.03 1.59-.1 2.38-.13.8-.06 1.59-.1 2.37-.14.77-.06 1.55-.1 2.31-.13.76-.06 1.51-.1 2.25-.14.73-.05 1.45-.1 2.16-.13l2.06-.13c.67-.05 1.31-.07 1.94-.1l1.81-.14 3.15-.18c.93-.08 1.75-.11 2.41-.15a82.8 82.8 0 0 0 2.1-.15m-39.37 52.74.42 2.24.48 2.57.61 3.35c.23 1.23.46 2.56.7 3.98l.77 4.47.75 4.78a517.85 517.85 0 0 1 1.37 9.91c.19 1.63.37 3.23.53 4.8.15 1.57.27 3.08.4 4.51l.25 4.04.14 3.4c.04 1.01.07 1.9.08 2.61l.04 2.28m-6.54-52.94 2.28.15 2.62.17 3.42.17 1.94.1 2.09.09 2.21.1 2.3.06 2.36.09 2.44.06 2.46.04c.83.02 1.66.02 2.5.03h2.46c.82.02 1.63.02 2.44.02h2.37c.78.02 1.55.02 2.3.01.74.02 1.47 0 2.19.02h13.48m-45.32 51.83.01 2.28.02 2.62.01 3.36v3.95l-.07 4.44-.12 4.73-.16 4.9-.2 4.9-.22 4.74-.23 4.47-.23 4-.2 3.37-.16 2.6-.14 2.28m1.7-52.63 2.55.22 2.97.2 3.88.27 2.19.14c.75.06 1.53.1 2.32.17l2.43.17 2.5.17 2.56.17 2.58.2 2.58.19c.86.07 1.7.14 2.56.18l2.5.2 2.46.17 2.37.18c.77.04 1.53.1 2.27.16.73.04 1.45.1 2.15.15l2.04.13c.65.04 1.28.07 1.9.12.6.03 1.18.05 1.74.1l2.98.17c.88.04 1.64.1 2.26.12l1.95.12m-55.44 48.93-.15 2.28-.18 2.62-.23 3.38-.29 4.03-.33 4.49-.37 4.8a2174.8 2174.8 0 0 1-1.9 23.24l-.29 3.39-.23 2.61-.2 2.28m4.17-53.12a247.56 247.56 0 0 0 5.2.65l3.58.45 2.03.26 2.16.27 2.26.3 2.35.3 2.42.31 2.45.33 2.49.32c.82.1 1.65.22 2.48.34l2.47.3a152.86 152.86 0 0 0 4.8.65 110.7 110.7 0 0 0 4.5.61l2.12.3 1.98.26 1.85.26 3.2.43 2.46.32 2.13.3m-57.1 46.16 2.35.46 2.68.52 3.48.67c.63.14 1.29.26 1.97.4l2.11.42 2.22.44 2.3.46c.78.16 1.57.3 2.38.48.8.15 1.61.3 2.42.47l2.46.49 2.46.5 2.46.5 2.43.5c.8.16 1.6.3 2.38.48l2.33.46 2.25.45c.74.14 1.46.28 2.15.44.7.13 1.39.26 2.05.4l1.93.38c1.23.24 2.36.44 3.36.65l2.6.5 2.28.43M185.67 56.92l.13 2.05.14 2.37.2 3.1.24 3.67a73.75 73.75 0 0 0 1.35 8.6c.3 1.56.65 3.14 1.02 4.72l1.08 4.73 1.06 4.63 1 4.35.9 3.91c.3 1.23.55 2.34.78 3.34l.6 2.58.52 2.23m-9.02-50.28 2.1-.25 2.4-.29 3.13-.36 1.78-.22 1.91-.22 2.02-.24 2.1-.24 2.18-.26a286.9 286.9 0 0 1 4.5-.52c.75-.1 1.5-.18 2.27-.27l2.28-.27 2.26-.26 2.22-.25 2.17-.25 2.1-.23c.69-.08 1.35-.16 2.01-.22l1.9-.22 1.78-.19 3.1-.33 2.4-.25 2.1-.21M194.7 107.2l.52 2.27c.19.73.38 1.59.62 2.6l.78 3.38.94 4.02 1.05 4.51 1.14 4.82 1.17 5.03 1.17 5.01c.4 1.66.77 3.31 1.14 4.9l1.07 4.6.96 4.14c.28 1.28.56 2.45.8 3.5l.61 2.7.53 2.36m-12.5-53.84s.77-.03 2.09-.13c.66-.02 1.45-.1 2.37-.14.92-.06 1.95-.14 3.08-.19.56-.03 1.14-.09 1.74-.11.6-.03 1.23-.07 1.86-.13.64-.03 1.3-.06 1.96-.11.67-.05 1.35-.08 2.04-.14.7-.04 1.4-.08 2.1-.14.7-.03 1.42-.09 2.14-.11l2.18-.15c.72-.03 1.45-.07 2.18-.13l2.16-.14c.73-.03 1.45-.07 2.16-.13l2.1-.1c.7-.05 1.39-.1 2.07-.12l1.98-.1c.65-.04 1.27-.1 1.9-.13l1.78-.09c.58-.02 1.14-.04 1.68-.08 1.07-.04 2.06-.1 2.93-.12l2.28-.12 2-.06m-34.28 56.51.53 2.35.6 2.7a448.94 448.94 0 0 1 1.67 7.75l.96 4.7c.34 1.63.67 3.3 1 5.03a378.78 378.78 0 0 1 1.85 10.42c.27 1.72.52 3.4.75 5.04.2 1.65.4 3.22.57 4.73.14 1.5.26 2.9.35 4.21a135.9 135.9 0 0 1 .15 6.24v2.38m-8.43-55.55 2.06-.02h2.34l3.01-.02 1.71-.01 1.82-.01h1.92l1.98-.01h2.05c.7 0 1.39-.02 2.08-.01h2.12l2.12-.02h8.25l1.93-.01 1.85.02h1.74l1.63.01 2.84.02h2.2c1.2.03 1.9.02 1.9.02m-37.12 55.6-.01 2.37-.05 2.73-.07 3.54a590 590 0 0 0-.12 4.2c-.06 1.5-.1 3.06-.17 4.7l-.21 5.01-.24 5.22-.26 5.22c-.1 1.73-.2 3.42-.28 5.07l-.27 4.75-.27 4.27c-.08 1.31-.15 2.52-.23 3.6l-.17 2.77-.16 2.44m2.51-55.9 1.93.11 2.2.12c.84.06 1.79.11 2.83.16l1.61.1 1.72.1 1.83.1a139.13 139.13 0 0 1 3.85.23l2 .11c.69.04 1.37.1 2.05.13l2.06.12c.68.04 1.37.07 2.05.12.69.05 1.37.07 2.05.13.67.03 1.34.08 2 .12.66.04 1.32.08 1.97.1.63.05 1.27.1 1.9.13l1.8.1 1.73.11 1.6.1c1.03.07 1.98.12 2.82.16l2.17.14c1.2.07 1.9.13 1.9.13m-46.58 53.28-.16 2.4-.19 2.8-.25 3.6-.3 4.27-.36 4.79a816.52 816.52 0 0 1-.8 10.42l-.42 5.3-.42 5.13-.4 4.81a395.77 395.77 0 0 0-.57 7.93 338.04 338.04 0 0 0-.18 5.2m4.05-56.65 2.11.28 2.43.33c.93.13 1.98.27 3.12.4.57.1 1.17.17 1.77.26l1.9.25 2 .26 2.07.28c.7.08 1.42.19 2.14.28l2.19.29 2.22.3 2.22.3 2.22.3c.74.1 1.47.19 2.2.3l2.15.28c.72.08 1.42.18 2.1.27l2.03.25c.67.09 1.31.19 1.95.26l1.84.24 1.73.23c1.11.12 2.14.26 3.04.37l2.34.3c1.3.14 2.07.25 2.07.25m-51.9 50.37 2.29.44 2.6.5 3.41.69c.62.11 1.28.23 1.95.37.68.14 1.37.28 2.09.4.72.16 1.44.3 2.2.45l2.3.44 2.4.48 2.44.46 2.52.5 2.51.49 2.53.48 2.52.5 2.5.47 2.44.48 2.35.44a225 225 0 0 0 2.27.42c.73.15 1.44.27 2.13.4l2.01.37 3.5.64 2.7.49 2.36.42m-28.69-288.1.15 2.16c.06.7.1 1.53.19 2.5l.25 3.25.32 3.92.37 4.38.43 4.73.46 4.92a94.08 94.08 0 0 0 1.46 9.89l.86 4.62.81 4.16.7 3.52.58 2.73.5 2.38m-7.08-53.16 2.1-.21 2.4-.23a301 301 0 0 1 3.13-.28l1.78-.15a427.5 427.5 0 0 1 6.1-.42c.73-.03 1.5-.06 2.27-.07l2.38-.01 2.45.01 2.46.03 2.48.05a198.99 198.99 0 0 1 4.9.13l2.39.09a294.33 294.33 0 0 1 6.65.32l1.98.11 3.48.23 2.69.2c1.5.1 2.35.18 2.35.18m-44.9 53.18a672.39 672.39 0 0 0 1.07 5.12l.75 3.57.91 4.23 1 4.72 1.07 5.08a3106.27 3106.27 0 0 1 2.16 10.56 970.1 970.1 0 0 1 1.92 9.9l.8 4.34.66 3.65.5 2.84.43 2.46m-11.28-56.47s.72-.04 1.98-.08c.64-.02 1.4-.04 2.28-.09.9 0 1.9-.04 3.01-.08.56 0 1.14-.02 1.74-.05l1.85-.03c.64-.03 1.3-.03 1.97-.05.68-.01 1.37 0 2.07-.03.71.01 1.42 0 2.15-.02.73.02 1.46.01 2.2 0h2.27l2.31-.01c.78.02 1.56.04 2.33.04l2.34.03c.77.02 1.54.05 2.3.05.77.03 1.54.05 2.3.1.74.01 1.49.04 2.22.07.74.03 1.46.07 2.16.08l2.05.1 1.94.11c1.23.05 2.38.1 3.4.19 1.01.04 1.9.1 2.63.14l2.3.16M252.74 161l.42 2.48.47 2.84.59 3.69.67 4.37a658.68 658.68 0 0 1 1.43 10.13l.68 5.42.62 5.4c.2 1.8.38 3.57.55 5.29.17 1.71.33 3.36.47 4.94a1132.48 1132.48 0 0 1 .67 8.21 400.03 400.03 0 0 1 .38 5.44M252.74 161l1.9.03c.61 0 1.34 0 2.19.02l2.84.03c.5.02 1.05.02 1.61.03.56.01 1.15.03 1.74.03a72 72 0 0 0 1.83.03c.62.02 1.26.04 1.9.04l2 .04 2.04.05 2.1.05 2.12.06c.7 0 1.42.04 2.11.05l2.15.07 2.1.06 2.08.05c.67.02 1.33.03 1.99.06l1.92.04 1.8.08 1.7.04 2.95.1 2.29.06 2.01.09m-38.42 57.1.15 2.52.17 2.92a551.41 551.41 0 0 1 .55 13.3l.16 5.35.1 5.57c.03 1.87.06 3.71.07 5.56l.04 5.39.02 5.04v4.53a609.47 609.47 0 0 1 0 6.8v2.58m-1.26-59.56 1.89.1 2.17.15c.84.04 1.78.1 2.82.18.51.02 1.06.06 1.61.1.56.02 1.14.07 1.73.1l1.82.11 1.92.13 2 .1c.67.04 1.34.09 2.02.12l2.06.12 2.07.11 2.08.1c.71.05 1.4.07 2.1.11l2.03.1 2 .1c.66.03 1.3.06 1.93.07l1.84.1a443.91 443.91 0 0 1 3.37.14c1.05.03 2 .09 2.86.11.86.06 1.6.1 2.22.12l1.94.09m-43.22 57.2v2.57l.02 2.97.02 3.85.05 4.55c.02 1.63.02 3.33.05 5.1.03 1.77.08 3.58.1 5.45l.18 5.63.2 5.6c.07 1.85.16 3.71.24 5.5l.28 5.2.33 4.65.27 3.94.2 3.05.18 2.64m-2.12-60.7 2.08.25c.66.08 1.47.16 2.4.28a239.21 239.21 0 0 1 4.95.55l1.93.21c.66.07 1.34.14 2.04.23l2.17.22c.74.07 1.5.14 2.25.23l2.31.24c.8.09 1.58.17 2.38.24.8.1 1.6.16 2.42.25l2.4.24 2.41.23c.8.08 1.6.15 2.39.24l2.34.23c.76.07 1.51.15 2.25.2l2.16.23a247.96 247.96 0 0 0 3.95.35c1.23.13 2.36.22 3.34.3 1 .1 1.87.16 2.58.23l2.22.16m-48.85 55.6s.86.13 2.35.4l2.7.47c1.06.19 2.22.38 3.52.62.64.1 1.32.2 2 .33l2.16.36c.73.13 1.49.24 2.27.4a190 190 0 0 1 2.37.37l2.45.4 2.5.4c.86.13 1.71.25 2.57.4l2.57.38c.86.13 1.72.26 2.57.37l2.56.38c.85.1 1.68.24 2.51.35l2.46.33c.8.11 1.6.23 2.37.32l2.27.3c.74.1 1.46.18 2.15.26l2.02.25 3.51.42 2.71.3 2.37.26m-31.66-296.2.13 2.2.16 2.56.22 3.33.27 3.98.36 4.47a1027.93 1027.93 0 0 0 1.39 14.88l.5 4.92c.17 1.6.32 3.15.49 4.63l.44 4.18.38 3.53c.11 1.05.2 1.97.3 2.74l.25 2.39m-4.89-53.81a649.18 649.18 0 0 0 5.05.43l3.5.33 2.01.2 2.16.23 2.26.24 2.37.26 2.46.28 2.5.3 2.56.3 2.57.33c.86.1 1.72.22 2.57.33.86.1 1.7.22 2.55.33.85.1 1.68.22 2.51.33l2.45.33 2.37.32 2.26.32 2.15.3c.68.1 1.36.18 2 .28l3.5.5 2.7.38 2.35.34m-49.96 47.15.27 2.39.3 2.75.41 3.58A812.07 812.07 0 0 0 294 128l.7 5.31.68 5.32.64 5.16.58 4.88.5 4.39.42 3.69.32 2.86.27 2.5m-6.85-56.95 2.3.14c.74.05 1.64.1 2.66.2 1.03.06 2.19.13 3.45.25.63.05 1.3.08 1.97.14l2.12.16c.73.07 1.46.11 2.23.2l2.34.2c.8.04 1.6.12 2.42.19l2.46.22c.83.07 1.67.14 2.51.23l2.5.21 2.5.25c.83.06 1.66.16 2.47.23.81.08 1.62.16 2.4.22.8.1 1.59.17 2.35.22.77.1 1.52.16 2.26.23l2.16.22c.7.08 1.37.13 2.03.2.66.08 1.29.14 1.9.2 1.2.14 2.3.25 3.27.33.98.12 1.82.21 2.52.28 1.39.14 2.18.25 2.18.25M298.1 162.1a960.76 960.76 0 0 0 .59 5.38c.11 1.1.24 2.37.4 3.74l.44 4.44.5 4.96.52 5.31.56 5.54.55 5.56a2942.42 2942.42 0 0 0 1.05 10.49l.46 4.56c.14 1.42.27 2.71.4 3.87l.3 2.98.29 2.63m-6.06-59.46 2.01.07 2.32.1 2.98.12 1.72.1 1.85.1c.63.02 1.28.06 1.95.11l2.02.13 2.1.14 2.13.15c.73.03 1.45.08 2.18.14l2.21.14c.73.04 1.46.1 2.18.15l2.16.16 2.07.14 2.02.15 1.95.15 1.86.14c.61.04 1.2.1 1.78.13.57.04 1.13.09 1.66.11l2.9.23c.85.05 1.61.12 2.23.17l1.95.15m-40.17 56.47.28 2.62.32 3.02.43 3.9.51 4.65a1488.28 1488.28 0 0 0 1.27 10.79l.7 5.83a2395.77 2395.77 0 0 0 2.19 16.8c.23 1.7.44 3.3.66 4.8l.57 4.03.44 3.15.38 2.73m-7.75-62.31s.7.02 1.92.09c.62.03 1.36.06 2.2.08.85.06 1.8.1 2.85.16l1.63.08c.57.04 1.17.08 1.77.1.6.05 1.22.08 1.86.11.63.05 1.28.08 1.93.12.66.04 1.34.09 2 .1.67.06 1.34.1 2.02.12.68.04 1.37.09 2.06.12.7.03 1.39.09 2.09.12l2.07.1 2.07.11 2.02.1c.67.02 1.33.05 1.98.1l1.9.06c.63.03 1.24.07 1.83.08l1.73.09c.56.02 1.1.03 1.62.06l2.81.1 2.18.07 1.9.07m-36.69 60.17.38 2.75.43 3.14.55 4.1.61 4.82c.2 1.72.43 3.51.64 5.39.2 1.85.42 3.77.62 5.72l.57 5.93c.17 2 .36 4 .52 5.96l.48 5.76c.14 1.87.28 3.66.39 5.38a941.55 941.55 0 0 1 .58 8.86 698.54 698.54 0 0 1 .34 5.86m-6.1-63.67 2.21.19c.7.04 1.55.1 2.52.18l3.24.23c.6.05 1.21.1 1.85.13l1.96.13 2.06.14 2.13.12 2.19.14c.73.02 1.47.07 2.21.11l2.26.1 2.26.11c.74.03 1.5.07 2.23.08l2.2.08c.73.04 1.43.05 2.14.08l2.07.05 2 .05c.66.01 1.29.01 1.92.03.62 0 1.22 0 1.8.02.59 0 1.15 0 1.7.02h5.23c1.26 0 1.98-.02 1.98-.02m-42.06 61.7 2.35.24 2.7.26 3.51.33 2 .16 2.13.19 2.26.17 2.35.16 2.43.17 2.47.14c.83.06 1.67.1 2.51.14l2.53.13 2.5.1 2.5.09c.81.02 1.63.03 2.43.06.8 0 1.6.04 2.37.05l2.28.03 2.18.02 2.05.01h1.92l3.33-.04 2.57-.05 2.22-.06m-30.4-291.84.14 2.14.17 2.49.24 3.24.28 3.86.33 4.32.36 4.66.38 4.85c.13 1.64.24 3.26.35 4.87.1 1.6.2 3.19.28 4.73l.2 4.44.14 4 .08 3.39.06 2.63.03 2.3M341.22 58l2.34.35 2.7.39a5249.84 5249.84 0 0 0 5.47.8l2.14.32 2.25.33 2.34.35 2.43.37 2.48.36 2.52.38 2.54.38 2.53.38 2.52.37 2.47.36 2.42.36 2.33.35 2.23.32 2.1.31 1.98.29 3.44.5 2.65.39 2.31.33m-51.15 43.93.03 2.3v6.08a596.06 596.06 0 0 1 0 8.71l-.07 4.94a953.01 953.01 0 0 0-.08 10.3v4.99c0 1.65 0 3.23.02 4.73a417.31 417.31 0 0 0 .08 7.87 492.6 492.6 0 0 0 .1 5.24m-.08-55.16 2.17.22 2.46.28c.94.1 2.01.24 3.19.35.57.08 1.19.14 1.8.21l1.95.22c.66.08 1.34.18 2.04.25.68.1 1.38.18 2.09.25l2.16.25c.74.1 1.48.17 2.23.27s1.5.18 2.26.26l2.3.27c.76.1 1.52.2 2.28.27.77.08 1.53.18 2.29.27a162.98 162.98 0 0 1 4.46.5c.72.1 1.44.2 2.13.27.7.08 1.4.17 2.06.22.67.1 1.32.18 1.95.24l1.82.2 3.21.37 2.5.28 2.17.24m-49.44 49.47.06 2.44.08 2.82a586.75 586.75 0 0 0 .28 8c.06 1.56.14 3.2.22 4.9l.28 5.22c.1 1.78.22 3.61.34 5.45l.41 5.47a664.23 664.23 0 0 0 .95 10.37l.49 4.53.44 3.85.38 2.97.33 2.6m-4.26-58.62 1.94.13c.63.06 1.38.1 2.25.18l2.91.22 1.66.12c.58.03 1.17.08 1.79.13l1.88.13 1.97.15 2.05.14 2.09.16 2.13.16 2.16.15c.72.03 1.44.09 2.16.15l2.15.14 2.12.14c.7.06 1.4.1 2.09.14l2.02.14 1.94.12c.63.05 1.25.1 1.84.12l1.75.13c1.11.05 2.14.13 3.05.19l2.38.14 2.09.15M348.6 223.7a2100.4 2100.4 0 0 0 .78 5.6l.58 3.91a472.48 472.48 0 0 0 1.59 9.83 644.32 644.32 0 0 0 2.05 11.37l1.1 5.79 1.13 5.64 1.1 5.31 1 4.78.88 4.04.68 3.14.6 2.73m-11.49-62.14 1.9.07 2.16.04 2.81.1c.5 0 1.05 0 1.6.03.55 0 1.13.02 1.72.04l1.81.03c.62.01 1.25.03 1.9.03l1.95.05 2 .03 2.04.02c.69 0 1.37.02 2.06.03h2.04c.7.02 1.38.01 2.06.03l2.01.01 1.98.01 1.91.01H393m-32.9 61.61a1007.66 1007.66 0 0 0 1.31 5.86l.92 4.1 1.1 4.84 1.24 5.41 1.32 5.75a362.65 362.65 0 0 1 2.56 12.03c.4 1.97.76 3.92 1.09 5.82.3 1.9.59 3.72.84 5.45.2 1.72.35 3.34.48 4.84l.32 4.07.22 3.14.13 2.7m-11.53-64 1.98-.03 2.27-.04 2.95-.07c.54-.03 1.1-.03 1.68-.05l1.81-.05 1.9-.08 2-.08 2.06-.08 2.11-.1c.72-.05 1.44-.08 2.16-.11l2.17-.12c.73-.05 1.45-.1 2.18-.13l2.17-.12c.72-.04 1.43-.1 2.14-.13.7-.06 1.4-.1 2.1-.13.68-.06 1.36-.11 2.03-.14l1.94-.14 1.86-.15c.6-.03 1.18-.09 1.74-.12 1.12-.07 2.14-.15 3.05-.23.92-.07 1.72-.12 2.38-.18 1.3-.12 2.07-.16 2.07-.16m-35.22 66.43 2.18-.1 2.44-.16 3.13-.28 1.78-.18c.6-.06 1.24-.12 1.89-.2l2-.23 2.06-.26 2.13-.27 2.19-.3c.73-.1 1.47-.21 2.22-.3.74-.12 1.48-.23 2.23-.33l2.23-.34 2.22-.34c.73-.1 1.46-.23 2.18-.33a91.3 91.3 0 0 1 2.13-.34c.69-.1 1.38-.21 2.05-.33l1.97-.32 1.87-.3 1.74-.28 3.05-.52 2.35-.4 2.05-.36M395.4 66a256.08 256.08 0 0 0 .3 4.48l.22 3.1c.08 1.15.16 2.37.2 3.69.04 1.3.03 2.68 0 4.12-.05 1.43-.12 2.92-.19 4.44l-.35 4.61a1805.06 1805.06 0 0 0-.68 9.15l-.3 4.25-.28 3.82c-.08 1.2-.15 2.28-.23 3.26l-.17 2.5-.15 2.2M395.42 66l2.3.34 2.64.38 3.43.5 1.96.27 2.1.3c.71.1 1.45.2 2.2.32l2.3.32 2.4.34c.8.1 1.6.23 2.42.34l2.48.34 2.5.35 2.47.35 2.49.34c.81.1 1.61.22 2.42.33l2.37.32 2.28.32 2.2.3c.7.1 1.4.2 2.07.28.66.1 1.3.18 1.93.26l3.39.46 2.6.35 2.27.3m-54.86 42.2-.16 2.22-.16 2.53-.22 3.3-.25 3.93c-.1 1.4-.18 2.87-.28 4.4l-.3 4.7-.28 4.92-.28 4.93a9473.14 9473.14 0 0 0-.7 13.35l-.16 3.43-.13 2.66-.1 2.34m3.02-52.7 2.18.25 2.52.29 3.28.34 1.88.22a374.4 374.4 0 0 1 4.17.44l2.24.24 2.33.25c.79.08 1.6.15 2.4.25.8.09 1.63.16 2.45.26.83.07 1.65.17 2.48.25.83.07 1.67.17 2.48.25.85.07 1.67.17 2.5.25.82.08 1.63.18 2.45.25l2.42.23 2.32.24c.77.06 1.52.14 2.25.23l2.1.2 2 .2c1.25.1 2.4.23 3.42.32 1.03.1 1.91.2 2.64.26l2.3.22m-55.83 47.25-.1 2.33-.12 2.7-.14 3.47-.15 4.15-.14 4.64-.12 4.99-.07 5.18v5.19c.03 1.7.09 3.4.17 5.05a92.92 92.92 0 0 0 1.2 9.2c.23 1.34.44 2.58.65 3.69.2 1.1.4 2.06.56 2.85l.5 2.5m-2.24-55.94 2.1.14 2.42.14 3.2.2 1.83.11 1.99.12c.68.03 1.38.08 2.12.1.72.06 1.47.1 2.22.13.76.06 1.54.1 2.33.14l2.4.14 2.47.14c.83.06 1.67.1 2.52.15l2.52.14 2.52.14c.83.04 1.65.1 2.48.13l2.4.14c.8.03 1.58.06 2.34.12l2.24.1 2.1.1 1.96.08c1.23.05 2.37.1 3.37.16 1 .03 1.88.07 2.6.08 1.42.04 2.25.08 2.25.08M393 224.24a1121.81 1121.81 0 0 0 1.14 5.38l.82 3.74 1 4.44 1.16 4.97 1.24 5.32 1.32 5.53c.45 1.86.9 3.72 1.32 5.53l1.3 5.38 1.21 5.03 1.09 4.5.92 3.83.7 2.95.62 2.58M393 224.24H397.39l3.12.01c.57 0 1.18-.02 1.81 0l1.97-.01h2.11c.73 0 1.47-.03 2.22-.02l2.33-.03 2.4-.03 2.46-.03 2.5-.06c.84 0 1.69-.02 2.52-.05.85-.01 1.67-.04 2.5-.06.82-.02 1.63-.06 2.44-.07l2.38-.07 2.29-.08 2.17-.07 2.03-.07 1.9-.03 3.24-.09 2.47-.03 2.13-.04m-37.54 60.01.62 2.58.7 2.95.91 3.86 1.07 4.55 1.2 5.08 1.25 5.44 1.29 5.62 1.25 5.58 1.19 5.4 1.1 5.06.96 4.56c.28 1.4.51 2.67.72 3.8.18 1.14.34 2.12.45 2.93l.16 2.55m-12.87-59.96 2.08-.18c.66-.05 1.47-.1 2.4-.18.93-.09 1.99-.16 3.14-.25l1.8-.16c.62-.04 1.27-.1 1.93-.17.67-.05 1.34-.13 2.05-.18.68-.07 1.4-.12 2.12-.2.7-.06 1.44-.14 2.18-.22l2.23-.23c.76-.07 1.5-.16 2.27-.24.76-.07 1.51-.16 2.27-.25.76-.07 1.52-.17 2.26-.25l2.26-.28c.74-.08 1.47-.17 2.2-.27l2.16-.23 2.07-.25 2-.22 1.87-.2a223.33 223.33 0 0 1 4.78-.5l2.3-.24 2-.19m-35.5 64.85s.75-.11 2.05-.34l2.35-.43 3.06-.53 1.74-.32c.6-.11 1.23-.2 1.87-.32l1.97-.36 2.04-.37 2.13-.39c.71-.12 1.44-.25 2.17-.4.73-.12 1.47-.27 2.21-.4l2.24-.41c.74-.16 1.49-.29 2.22-.43.76-.13 1.5-.28 2.24-.42l2.18-.41 2.15-.4c.7-.13 1.38-.25 2.05-.4.67-.12 1.33-.23 1.96-.37.63-.11 1.24-.25 1.83-.37l1.7-.36c1.1-.23 2.09-.43 2.96-.63l2.25-.5c1.24-.3 1.96-.45 1.96-.45m-18.4-260.95a5663.2 5663.2 0 0 0 .28 4.3 87.05 87.05 0 0 1 .18 6.57c-.02 1.27-.03 2.6-.07 4-.04 1.38-.1 2.81-.17 4.28-.09 1.46-.18 2.94-.29 4.42-.1 1.48-.23 2.98-.34 4.43a2640.55 2640.55 0 0 0-.7 8.4l-.3 3.65-.26 3.1-.2 2.39-.17 2.1m2.04-47.64 2.27.3 2.6.35 3.37.46 1.92.25 2.06.28 2.16.28 2.27.3 2.34.3 2.37.32c.8.1 1.61.2 2.42.32l2.4.31 2.4.31 2.38.31 2.31.3 2.25.3 2.18.29 2.08.27 1.95.25 1.84.23 3.2.4 2.45.32 2.14.28m-53.4 40.91-.18 2.1-.2 2.4-.26 3.15-.3 3.74-.34 4.18-.34 4.5-.33 4.66-.32 4.69-.27 4.56a1237.96 1237.96 0 0 0-.48 8.09l-.2 3.25-.13 2.51-.12 2.2m3.47-50.03a164.32 164.32 0 0 0 4.89.45l3.39.33 1.92.16c.66.05 1.35.1 2.06.17l2.17.19 2.26.2 2.34.2 2.38.2a130.88 130.88 0 0 1 4.84.41l2.4.2 2.37.18 2.3.2c.76.04 1.5.11 2.24.16.73.07 1.44.11 2.14.2.7.03 1.38.1 2.03.15.66.04 1.3.1 1.9.15.61.06 1.2.09 1.77.15l3.06.23 2.33.19c1.28.1 2.01.14 2.01.14m-54.26 45.77-.1 2.19-.12 2.52-.14 3.27a693.02 693.02 0 0 0-.25 8.22l-.05 4.65.02 4.87a311.93 311.93 0 0 0 .31 9.66 265.08 265.08 0 0 0 .64 8.55 218.18 218.18 0 0 0 .93 8.4m-1.25-52.33 2.24.05 2.55.08c.96 0 2.07.04 3.26.06l1.85.04a2350.1 2350.1 0 0 0 8.37.16l2.2.06 2.23.08 2.2.08 2.16.08 2.13.08 2.05.09 2 .09 1.86.11 1.8.11c.57.04 1.12.1 1.66.13.54.03 1.06.08 1.55.12l2.64.22 2 .19 1.72.16m-45.22 50.33s.1.83.31 2.31l.38 2.68a320.9 320.9 0 0 0 1.21 7.61 580.67 580.67 0 0 0 2.77 14.74l1.06 5.15 1.09 5 1.04 4.7.95 4.22.82 3.56.64 2.75.56 2.4m-10.83-55.12s.76 0 2.1-.04l2.37-.06c.9 0 1.93-.03 3.05-.03.54-.03 1.12-.03 1.7-.03.6 0 1.2-.02 1.8 0h1.89c.64-.02 1.3-.01 1.95 0h2l2 .03c.68 0 1.36.01 2.02.03.68.01 1.34.02 2.02.05l1.96.05 1.95.06 1.85.06 1.82.06 1.74.05 1.66.07c.54.01 1.05.02 1.55.05.5.02 1 .04 1.46.04l2.53.1 1.91.07c1.06.04 1.68.04 1.68.04m-32.18 54.52a811.27 811.27 0 0 0 1.22 5.16l.86 3.57 1 4.23 1.14 4.72a1013.61 1013.61 0 0 1 3.63 15.53c.36 1.73.72 3.41 1.05 5.05l.94 4.7a306.98 306.98 0 0 1 1.32 7.76 161.55 161.55 0 0 1 .67 5.12m-11.83-55.84 1.98-.19c.62-.06 1.38-.14 2.26-.21.85-.1 1.83-.17 2.88-.26l1.62-.14 1.75-.12 1.82-.15c.62-.06 1.25-.1 1.88-.15.65-.05 1.29-.11 1.95-.15l1.96-.14a1079.66 1079.66 0 0 0 3.98-.25l1.97-.1 1.96-.11c.63-.05 1.25-.08 1.87-.11l1.82-.1 1.74-.1c.58-.02 1.13-.06 1.67-.1l1.56-.08 1.46-.09 2.51-.13 1.92-.12 1.67-.1m-30.4 58.74 1.94-.46 2.23-.49 2.88-.65c.52-.13 1.06-.24 1.63-.37l1.74-.4 1.81-.42 1.9-.44 1.95-.45c.66-.13 1.33-.29 1.99-.44a287.86 287.86 0 0 0 4.03-.94c.67-.14 1.35-.3 2-.45l1.99-.45 1.93-.42 1.88-.42 1.8-.41 1.72-.39c.55-.12 1.1-.23 1.6-.36l1.52-.34c.95-.2 1.82-.4 2.6-.58.78-.17 1.45-.33 2.01-.43l1.73-.4M500 80.16s0 .68-.03 1.9l-.06 2.16-.06 2.84-.1 3.37c-.05 1.2-.08 2.45-.14 3.77a543.7 543.7 0 0 1-.32 8.25l-.28 4.23-.3 4.1c-.1 1.34-.2 2.63-.31 3.87l-.3 3.48-.28 2.95c-.07.88-.15 1.64-.22 2.28l-.2 1.97m2.6-45.17a310.7 310.7 0 0 0 4.57.59l3.16.42 1.8.25 1.92.25c.66.1 1.32.18 2.03.27l2.11.29 2.2.29 2.22.3 2.26.3 2.29.3 2.27.31 2.27.31 2.23.3 2.18.3a516.87 516.87 0 0 1 4.11.58l1.9.27 1.8.26 3.1.45 2.4.36 2.11.3m-51.53 38.47-.22 2-.27 2.28-.36 2.95-.47 3.5-.54 3.92-.6 4.18-.77 4.38-.82 4.46c-.3 1.48-.57 2.95-.86 4.4l-.8 4.14c-.25 1.33-.5 2.59-.71 3.76l-.58 3.18-.44 2.46-.36 2.15m7.8-47.76a181.04 181.04 0 0 0 4.26.34l2.91.24 1.64.13c.57.05 1.17.08 1.76.14.59.03 1.19.1 1.8.14l1.87.15 1.95.16 1.99.15c.67.07 1.34.11 2.02.17.67.06 1.33.1 2.01.17.67.06 1.35.1 2 .17l1.96.18c.64.05 1.26.12 1.88.19l1.77.23c.58.07 1.15.17 1.7.25.57.06 1.11.13 1.65.21.53.09 1.06.15 1.56.24l1.48.2c.95.15 1.82.27 2.6.38.8.12 1.47.23 2.04.3l1.8.28m-50.45 43.34-.34 2.15a194.7 194.7 0 0 0-.82 5.7l-.47 3.82a210.28 210.28 0 0 0-1.25 18.38 262.8 262.8 0 0 0 .15 12.82 300.7 300.7 0 0 0 .34 5.86l.18 2.2m2.2-50.93 1.69.16c.53.04 1.18.1 1.93.18l2.51.23c.46.04.93.08 1.42.14l1.5.12 1.59.14 1.62.15 1.66.15 1.7.16 1.72.15c.57.06 1.14.1 1.73.15l1.72.16 1.73.14 1.69.15 1.66.15 1.6.14 1.54.14c.5.06 1 .1 1.46.14l1.39.13c.88.09 1.7.16 2.43.22.73.08 1.36.13 1.89.2l1.66.15M487.39 224a504.7 504.7 0 0 0 .46 4.79l.37 3.3a282.42 282.42 0 0 0 1.2 8.3c.25 1.5.52 3.08.81 4.67a331.87 331.87 0 0 0 5.95 25.85l.67 2.53.59 2.18m-10.05-51.62 1.62.07c.52.03 1.14.04 1.87.06.71.04 1.53.07 2.42.1l1.39.05 1.47.06 1.54.07 1.6.07 1.61.06 1.65.06 1.68.06c.56.04 1.12.06 1.69.09.56 0 1.12.02 1.68.05l1.68.08c.55.02 1.1.03 1.64.06.55.01 1.08.03 1.62.06.52.02 1.05.03 1.56.06l1.5.05 1.42.06 1.35.05 2.36.1c.7.03 1.31.07 1.83.08l1.6.07m-26.73 50.15.6 2.18.7 2.49.9 3.23 1.07 3.8 1.18 4.2 1.23 4.49c.4 1.5.83 3.05 1.23 4.6a2939.76 2939.76 0 0 1 2.27 8.94 194.09 194.09 0 0 1 1.75 7.7l.66 3.04.48 2.33.41 2.04m-12.48-49.04 1.67-.1 1.89-.13 2.44-.18 1.37-.1 1.48-.09 1.52-.12 1.58-.12a53.2 53.2 0 0 1 1.64-.12c.55-.05 1.1-.1 1.67-.13l1.72-.13 1.7-.12c.56-.06 1.14-.1 1.7-.14l1.68-.15 1.63-.14c.54-.04 1.07-.1 1.6-.16l1.54-.13 1.5-.14 1.43-.13 1.35-.14 2.37-.23 1.84-.2 1.63-.16m-24.47 52.1 1.72-.4c.55-.12 1.2-.28 1.96-.44l2.52-.6c.46-.1.94-.2 1.44-.33l1.55-.35c.54-.12 1.07-.26 1.64-.38.55-.15 1.12-.27 1.69-.41.57-.15 1.16-.3 1.75-.43l1.8-.44 1.83-.46 1.86-.45 1.85-.45c.62-.17 1.23-.3 1.85-.46l1.82-.45 1.8-.44 1.75-.43 1.67-.4 1.6-.4 1.5-.37c.96-.24 1.84-.45 2.62-.66l2.04-.5 1.77-.45m-1.02-228.11-.3 1.77-.36 2.05-.47 2.65-.6 3.15-.65 3.54-.7 3.8a1192.58 1192.58 0 0 0-1.4 7.94l-.7 3.88a101.2 101.2 0 0 1-2.45 9.9l-.66 2.24-.6 1.96m8.9-42.88 2.1.3 2.43.37 3.16.48 1.8.27 1.94.3 2.06.32 2.16.33 2.25.34a1455.19 1455.19 0 0 0 4.68.7l2.4.36 2.42.33 2.4.33 2.38.32 2.34.3 2.25.27 2.16.25 2.06.25a349.86 349.86 0 0 0 5.24.6l2.57.3 2.26.23-.31 1.74-.38 2.02-.52 2.62-.68 3.11-.82 3.52-.92 3.79a413.38 413.38 0 0 1-2.01 7.96 526.59 526.59 0 0 1-2.1 7.58l-.96 3.34a71.96 71.96 0 0 1-1.63 4.93l-.67 1.86m-48.95-6.54-.58 1.94-.66 2.27-.85 2.94a1253 1253 0 0 0-2.08 7.4l-1.14 4.17-1.22 4.36-1.21 4.38a459.7 459.7 0 0 0-3.08 11.86l-.75 3.04-.57 2.36-.48 2.07m12.62-46.8 1.82.27c.57.08 1.29.18 2.1.31l2.8.4c.5.07 1.04.16 1.6.26.57.06 1.15.16 1.75.24.6.09 1.23.18 1.87.29l1.97.3 2.07.32 2.14.33 2.23.32 2.26.34c.76.12 1.53.22 2.29.33.77.11 1.55.2 2.32.32.77.1 1.54.2 2.3.32.77.09 1.54.2 2.3.3l2.23.28 2.18.28c.7.1 1.4.18 2.08.26l1.97.22 3.5.36c1.07.11 2 .2 2.76.29 1.52.14 2.4.2 2.4.2m-61.56 40.26-.46 2.06-.51 2.37a274.93 274.93 0 0 0-1.35 6.75 154.78 154.78 0 0 0-1.3 8.51 107.94 107.94 0 0 0-.44 9.2 220.72 220.72 0 0 0 .1 8.64 246.95 246.95 0 0 0 .53 9.31l.18 2.11m3.25-48.95 1.68.15 1.96.19 2.54.26 1.48.16 1.61.16 1.73.2 1.83.19 1.91.2 2 .22 2.04.22 2.07.22 2.12.2 2.16.22 2.17.19 2.17.2c.73.04 1.45.1 2.15.16l2.12.13 2.05.12a383.59 383.59 0 0 0 5.46.27l2.8.1 2.48.08m-49.78 45.11.2 2.11.24 2.4.36 3.1.48 3.64a296.83 296.83 0 0 0 1.36 8.34c.28 1.47.58 2.95.9 4.43a252.5 252.5 0 0 0 2.14 8.6 233.54 233.54 0 0 0 2.21 7.4l.92 2.9c.3.87.53 1.6.74 2.24l.66 1.93m-10.21-47.09 1.62.07c.52.03 1.15.05 1.88.07l2.48.1 1.43.04 1.56.06 1.64.04 1.74.05 1.83.06 1.92.04 2 .05c.67 0 1.35.03 2.04.04l2.09.03 2.09.01c.69 0 1.39.02 2.09.01a183.05 183.05 0 0 0 4.18 0c.69 0 1.36-.02 2.03-.03.68 0 1.34-.03 1.98-.04l1.9-.07a568.04 568.04 0 0 0 6.2-.25l2.5-.13m-34.99 46.94.62 1.9.73 2.2.97 2.82a886.63 886.63 0 0 0 2.43 6.94 407.46 407.46 0 0 0 2.89 7.84c.5 1.32 1 2.62 1.48 3.93l1.47 3.76 1.37 3.5 1.2 3.12a762.61 762.61 0 0 1 2.4 6.39m-15.56-42.4 1.6-.19 1.87-.2 2.46-.28 1.42-.16c.5-.05 1.02-.1 1.55-.17l1.67-.18 1.77-.2c.6-.09 1.23-.15 1.87-.22l1.96-.24a730.03 730.03 0 0 1 4.16-.49l2.17-.25 2.2-.28c.75-.1 1.49-.2 2.23-.28l2.22-.3 2.2-.3 2.13-.31 2.07-.32 1.98-.3 3.53-.57 2.8-.47 2.47-.42m-30.77 48.53 1.79-.44a332.68 332.68 0 0 1 6.37-1.6l1.71-.4c.58-.16 1.18-.3 1.8-.45.61-.16 1.24-.33 1.88-.48a125.31 125.31 0 0 1 4.03-1c.7-.19 1.41-.36 2.13-.54l2.17-.51 2.2-.53c.73-.16 1.47-.32 2.2-.5l2.2-.48c.72-.18 1.45-.34 2.17-.5l2.12-.47 2.05-.44c.67-.15 1.32-.29 1.96-.41l1.85-.4 3.27-.66 2.54-.52c1.43-.29 2.25-.44 2.25-.44l-.6-1.62-.7-1.86-.94-2.42-1.14-2.86-1.32-3.18a646.27 646.27 0 0 0-2.98-6.91l-1.56-3.52c-.51-1.16-1-2.3-1.5-3.4l-1.4-3.2a679.36 679.36 0 0 1-3.09-7.15l-.69-1.64M589 136.28l-.67 1.86-.77 2.13-1 2.77-1.18 3.3a1024.25 1024.25 0 0 0-2.7 7.64l-1.43 4.12-1.41 4.13-1.34 4-1.25 3.77c-.39 1.2-.75 2.33-1.1 3.37l-.9 2.85-.69 2.22-.6 1.93m0 0-.57 1.93a359.92 359.92 0 0 0-1.48 5.13l-.92 3.43c-.3 1.21-.63 2.5-.94 3.84-.3 1.32-.6 2.7-.87 4.1-.25 1.41-.42 2.84-.51 4.26a131.72 131.72 0 0 0 .03 12.15l.17 3.4.19 2.88a168.71 168.71 0 0 0 .33 4.13m0 0a669.32 669.32 0 0 0 .4 4.1c.08.85.2 1.8.32 2.85.13 1.03.27 2.14.44 3.33a55.09 55.09 0 0 0 2.63 11.21 149.4 149.4 0 0 0 2.6 7.2c.43 1.14.87 2.24 1.28 3.27.42 1.03.81 2.01 1.2 2.92l1 2.43.78 1.88.7 1.63" stroke="#E5E6E9"/>
    <path d="m397.5 191 15.47 16.76 20.47-10.04 8.37 21.21 22.72-1.96.15 22.8 21.89 6.38-8.1 21.31 18.1 13.86-15.25 16.95 11.88 19.46-20.35 10.3 4.05 22.43-22.69 2.25-4.33 22.39-21.97-6.1-12.13 19.3-18.28-13.62-18.28 13.63-12.13-19.32-21.97 6.1-4.33-22.38-22.7-2.25 4.06-22.44-20.35-10.3 11.88-19.45-15.25-16.95 18.1-13.86-8.1-21.31 21.9-6.38.14-22.8 22.72 1.96 8.37-21.21 20.47 10.04L397.5 191Z" fill="#fff" stroke="#A2FFD0"/>
    <path d="m397.5 200 14.07 15.24 18.62-9.13 7.62 19.3 20.66-1.79.13 20.74 19.91 5.8-7.37 19.39 16.47 12.6-13.87 15.41 10.8 17.7-18.5 9.37 3.68 20.4-20.64 2.05-3.94 20.37-19.98-5.56-11.03 17.57-16.63-12.4-16.63 12.4-11.03-17.57-19.98 5.56-3.94-20.37-20.64-2.04 3.68-20.41-18.5-9.36 10.8-17.7-13.87-15.42 16.47-12.6-7.37-19.39 19.91-5.8.13-20.74 20.66 1.78 7.62-19.29 18.62 9.13L397.5 200Z" fill="#AFFFD7"/>
    <path d="M418.45 259.53h-29.02l6.7 14.38 1.9-.42a.99.99 0 0 1-.7.94l-.05.01h.1l.71-.03 2.72-.01c1.99 0 4.54.02 7.14.04h.13c2.64.03 5.32.05 7.49.05h2.6c3.08 0 6.7.1 9.52.99a7.56 7.56 0 0 1 3.3 1.88c.75.8 1.22 1.86 1.22 3.33 0 1.45-.34 2.55-.9 3.43a6.91 6.91 0 0 1-2.4 2.2c-1.73 1.03-3.9 1.7-6.31 2.44l-1.85.57c-3.04.98-6.27 2.2-8.73 4.49-2.5 2.33-4.11 5.69-4.11 10.72v1h12.26v-1c0-1.8.41-3.18 1.1-4.26a8.05 8.05 0 0 1 2.95-2.66c2.33-1.31 5.38-2.06 8.68-2.86l1.09-.26c3.62-.9 7.45-1.93 10.37-4.05 3-2.18 4.97-5.44 4.97-10.57 0-4.15-1.02-7.55-2.82-10.3a18.35 18.35 0 0 0-7.3-6.24c-5.9-2.95-13.56-3.81-20.76-3.81ZM423.59 312h-18.65v20h18.65v-20ZM371.8 275.02h-19.87l4.68 10.06 1.91-.42a1 1 0 0 1-.6.91c-.09.04-.16.05-.17.05h-.02.04l.46-.01 1.81-.01 4.76.03h.08l5 .03h1.74c2.05 0 4.41.07 6.24.64.9.29 1.6.68 2.06 1.17.44.47.72 1.1.72 1.99 0 .91-.21 1.58-.54 2.1-.34.54-.83.98-1.5 1.37a19.78 19.78 0 0 1-4.12 1.58l-1.25.4c-2.03.65-4.25 1.48-5.94 3.06-1.75 1.62-2.85 3.95-2.85 7.39v1h8.84v-1c0-1.15.26-2 .68-2.66a5.03 5.03 0 0 1 1.85-1.66c1.5-.86 3.5-1.34 5.71-1.88l.72-.17c2.4-.6 5.03-1.3 7.03-2.75 2.09-1.52 3.45-3.8 3.45-7.32 0-2.83-.7-5.16-1.94-7.05a12.57 12.57 0 0 0-5-4.28c-4-2-9.16-2.57-13.98-2.57ZM375.56 310h-13.1v14h13.1v-14Z" fill="#fff"/>
    <path d="M391.5 26c.24 19.18 11.07 34.65 24.5 35-13.43.35-24.26 15.82-24.5 35-.24-19.18-11.07-34.65-24.5-35 13.43-.35 24.26-15.82 24.5-35Z" fill="#6AD3FA"/>
    <path d="M249.5 260c.24 19.18 11.07 34.65 24.5 35-13.43.35-24.26 15.82-24.5 35-.24-19.18-11.07-34.65-24.5-35 13.43-.35 24.26-15.82 24.5-35Z" fill="#F9E490"/>
    <path d="M436.5 74c.16 13.15 7.46 23.76 16.5 24-9.04.24-16.34 10.85-16.5 24-.16-13.15-7.46-23.76-16.5-24 9.04-.24 16.34-10.85 16.5-24Z" fill="#AFFFD7"/>
    <path d="M124 83c.22 17.54 9.94 31.68 22 32-12.06.32-21.78 14.46-22 32-.22-17.54-9.94-31.68-22-32 12.06-.32 21.78-14.46 22-32Z" fill="#6AD3FA"/>
    <path fill-rule="evenodd" clip-rule="evenodd" d="M305.24 119.36c-20.78 0-36.85 6.64-47.7 17.33-10.86 10.69-16.42 25.35-16.34 41.27 0 15.84 5.6 30.5 16.45 41.21 10.86 10.71 26.88 17.39 47.59 17.39 18.35 0 34.4-5.54 45.88-15.7 11.49-10.15 18.32-24.87 18.32-43.06 0-15.84-5.61-30.47-16.48-41.13-10.88-10.67-26.94-17.31-47.72-17.31Zm-35.16 58.6c0-9.47 3.08-18.09 8.98-24.33 5.9-6.24 14.66-10.19 26.18-10.19 11.6 0 20.36 3.95 26.23 10.19 5.88 6.24 8.93 14.86 8.93 24.33 0 9.47-3.05 18.05-8.93 24.25-5.87 6.2-14.63 10.11-26.23 10.11-11.53 0-20.3-3.91-26.18-10.1-5.9-6.22-8.98-14.8-8.98-24.26Z" fill="#F9E490"/>
    <path fill-rule="evenodd" clip-rule="evenodd" d="M297.24 150.44c-12 0-21.32 4.13-27.63 10.81-6.3 6.68-9.53 15.81-9.53 25.71s3.23 19 9.53 25.63c6.31 6.64 15.63 10.73 27.63 10.73 12.07 0 21.39-4.09 27.68-10.73 6.29-6.64 9.48-15.74 9.48-25.63 0-9.9-3.2-19.03-9.48-25.7-6.29-6.69-15.6-10.82-27.68-10.82Zm-35.16 36.52c0-9.47 3.08-18.09 8.98-24.33 5.9-6.24 14.66-10.19 26.18-10.19 11.6 0 20.36 3.95 26.23 10.19 5.88 6.24 8.93 14.86 8.93 24.33 0 9.47-3.05 18.05-8.93 24.25-5.87 6.2-14.63 10.11-26.23 10.11-11.53 0-20.3-3.91-26.18-10.1-5.9-6.22-8.98-14.8-8.98-24.26Z" fill="#6AD3FA"/>
    <path fill-rule="evenodd" clip-rule="evenodd" d="M297.24 128.36c-20.78 0-36.85 6.63-47.7 17.33-10.86 10.69-16.42 25.35-16.34 41.27 0 15.84 5.6 30.5 16.45 41.21 10.86 10.71 26.88 17.39 47.59 17.39 18.35 0 34.4-5.54 45.88-15.7 11.49-10.15 18.32-24.87 18.32-43.06 0-15.84-5.61-30.47-16.48-41.13-10.88-10.67-26.94-17.31-47.72-17.31Zm-64.04 58.6h1-1Zm2 0c-.08-15.45 5.31-29.58 15.74-39.85 10.42-10.26 25.95-16.75 46.3-16.75 20.34 0 35.87 6.49 46.32 16.73 10.44 10.26 15.88 24.35 15.88 39.71 0 17.65-6.62 31.81-17.65 41.57-11.04 9.77-26.6 15.19-44.55 15.19-20.26 0-35.76-6.52-46.18-16.81-10.43-10.3-15.86-24.43-15.86-39.79ZM200.57 132.36h-28.6l-76.92 72.09v23.83h76.48V243h29.04v-14.72h17.76v-24.24h-17.76v-71.68Zm-29.04 28.74-45.91 42.94h45.9V161.1ZM489 132.36h-28.6l-76.92 72.09v23.83h76.48V243H489v-14.72h17.76v-24.24H489v-71.68Zm-29.04 71.68h-45.9l45.9-42.94v42.94Z" fill="#6AD3FA"/>
    <circle cx="304" cy="178" r="17" transform="rotate(-180 304 178)" fill="#FFB49D"/>
    <circle cx="309.67" cy="174.22" r="5.67" transform="rotate(-180 309.67 174.22)" fill="#000"/>
    <circle cx="312.85" cy="171.98" r="2.48" transform="rotate(-180 312.85 171.98)" fill="#fff"/>
</svg>
