<svg xmlns="http://www.w3.org/2000/svg" width="185" height="51" fill="none">
  <path fill="#0D457E" fill-rule="evenodd" d="M25.5 47.9c-.5-1.2-1.3-2.3-2.3-3.1-1 .8-1.8 1.8-2.3 3V49h4.6v-1.1Zm-4.1-4c-1.1 1-1.9 2.2-2.3 3.6H2.6V23.9h3.1v20.6l.7.1c2.6.5 5.4-.1 7.9-.6 1.5-.3 2.9-.6 4-.6s2.1.2 3.1.5ZM5.7 22.1v-4.7h.9c1.4 0 2.7-.2 4.1-.5v-5.5l4.7-1.5V3.5l4.2.7L23.2 0l3.6 4.2 4.2-.7v6.4l4.7 1.5v5.5c1.3.3 2.7.5 4.1.5h.9v4.7h5v27.3H27.3V51H19v-1.6H.7V22.1h5Zm5-3.3c-1 .2-2.1.4-3.1.5V43c1 .1 2.1 0 3.1-.1V18.8Zm1.8 23.7 1.5-.3c.6-.1 1.1-.2 1.7-.3V24.3l7.5-7.3 7.5 7.3v17.6c.5.1 1.1.2 1.7.3l1.5.3V12.7L23.2 9.4l-10.7 3.3v29.8Zm5-.9h.9c1.7 0 3.3.3 4.8 1.1 1.5-.8 3.1-1.1 4.8-1.1h.9V25.1l-5.7-5.5-5.7 5.5v16.5Zm7.4 2.3c1-.3 2-.5 3-.5 1.1 0 2.5.3 4 .6 2.5.5 5.3 1.1 7.9.6l.7-.1V23.9h3.1v23.6H27.3c-.5-1.3-1.3-2.6-2.4-3.6ZM17.2 9.3l6-1.9 6 1.9V5.7l-3 .5-2.9-3.4-2.9 3.4-3-.5v3.6h-.2Zm18.5 9.5v24.1c1 .2 2.1.2 3.1.1V19.2c-1.1-.1-2.1-.2-3.1-.4Zm94.8 12.5c0-.4.1-.9.3-1.3.2-.4.5-.8.8-1 .7-.5 1.5-.7 2.3-.7.8 0 1.7.2 2.4.7.4.3.7.6.8 1 .2.4.3.9.3 1.3v1.2c0 .8 0 1.6-.6 2.2-.2.3-.5.5-.8.7.4.2.8.5 1 .9.3.6.4 1.2.4 1.9v1.7c0 .8-.1 1.7-.9 2.4s-1.7.8-2.6.8c-.8 0-1.7-.1-2.4-.8-.6-.5-.9-1.3-.9-2.1v-1.3h2v.8c0 .4.1.7.3 1 .3.3.7.4 1.1.4.4 0 .7-.1 1-.3.4-.3.4-.8.4-1.2v-1.3c0-.4 0-1.2-.6-1.7-.3-.2-.7-.3-1.1-.3h-.6v-1.9h.6c.5 0 1-.2 1.3-.5.3-.4.4-.8.4-1.3v-.9c0-.4-.1-.9-.4-1.2-.3-.2-.6-.3-1-.3-.6 0-1.1.3-1.2.9-.1.2-.1.4-.1.6v.9h-2l-.2-1.3Zm-72-2.8v8.9l3.4-7.2v-1.6h2V43h-2v-8.9l-3.4 7.2V43h-2V28.5h2Zm8 0h2.1l2.8 8h.1l2.7-8h2v14.4h-2v-9H74l-2.2 6.5h-1.1l-2.2-6.5h-.1v9h-2.1l.2-14.4Zm19 0v14.4h-2V30.3h-2.7v12.6h-2V28.5h6.7Zm2.5 0h6.1v2h-4v4.3h3.6v1.9h-3.6V41h4.1v2H88V28.5Zm8.2 0h3.1c.9 0 2 0 2.9.9.9 1 1 2.2 1 3.3v.4c0 .8-.1 2-.9 2.9-.8.9-1.9 1.1-2.8 1.1h-1.2v5.7h-2l-.1-14.3Zm10.9 0v8.9l3.4-7.2v-1.6h2V43h-2v-8.9l-3.4 7.2V43h-2V28.5h2Zm14.7 14.4h-2.1v-6.2h-1.3l-1.8 6.2h-2.2l2.1-6.7c-.4-.2-.7-.4-1-.8-.4-.7-.6-1.4-.7-2.2v-1.1c0-.9.2-1.8.8-2.5 1-1.2 2.5-1.1 3.5-1.1h2.6l.1 14.4Zm-3-12.6c-.4 0-.9 0-1.3.4-.3.4-.5.8-.5 1.3v1c0 .6 0 .9.4 1.3.3.3.8.5 1.3.5h1.1v-4.5h-1Zm-20.6 5.1h1.1c.5 0 1-.2 1.4-.5.4-.5.4-1 .4-1.5v-1c0-.5 0-1.2-.6-1.7-.5-.4-1-.4-1.6-.4h-.7v5.1Zm43.6-6.9v6.2h2.8v-6.2h2v14.4h-2v-6.4h-2.8v6.4h-2V28.5h2Zm12.3 14.4-.7-3.1h-2.6l-.7 3.1h-2l3.1-14.4h1.8l3.1 14.4h-2Zm5.6-14.4v6.2h2.8v-6.2h2v14.4h-2v-6.4h-2.8v6.4h-2V28.5h2Zm9.4 0v8.9l3.4-7.2v-1.6h2V43h-2.1v-9l-3.4 7.2v1.7h-2V28.5h2.1Zm10 0v8.9l3.4-7.2v-1.6h2V43h-2v-9l-3.4 7.2v1.7h-2V28.5h2Zm4.2-3.2c0 .6-.2 1.2-.6 1.6-.4.4-1.1.6-1.9.6-.8 0-1.5-.2-1.9-.6-.4-.4-.6-1-.6-1.6V25h1.6v.2c0 .2.1.4.2.6.2.1.4.2.6.2.2 0 .4 0 .6-.2.2-.1.3-.4.2-.6V25h1.6l.2.3Zm-31.2 7.2L151 38h2.2l-1.1-5.5Z" clip-rule="evenodd"/>
</svg>
