<svg xmlns="http://www.w3.org/2000/svg" width="32" height="32" fill="none">
  <g clip-path="url(#a)">
    <path fill="#0D457E" fill-rule="evenodd" d="M17.56 30.055a4.945 4.945 0 0 0-1.442-1.945 4.744 4.744 0 0 0-1.443 1.882v.753h2.886v-.69h-.001Zm-2.572-2.51c-.69.628-1.192 1.38-1.443 2.259H3.192V14.996h1.945v12.926l.44.062c1.63.314 3.388-.062 4.956-.376.942-.188 1.82-.377 2.51-.377.69 0 1.318.126 1.945.314Zm-9.85-13.678v-2.95h.564c.878 0 1.694-.125 2.573-.313V7.153l2.948-.941V2.196l2.636.44L16.118 0l2.259 2.635 2.635-.439v4.016l2.949.94v3.452c.816.188 1.694.314 2.572.314h.565v2.949h3.137v17.13H18.69V32h-5.208v-1.004H2v-17.13h3.137l.001.001Zm3.137-2.07c-.628.125-1.318.25-1.946.313v14.87c.628.063 1.318 0 1.946-.062V11.796v.001Zm1.129 14.87.941-.189c.377-.062.69-.125 1.067-.188V15.247l4.706-4.58 4.706 4.58V26.29c.313.063.69.126 1.066.188l.941.189V7.969l-6.713-2.071-6.714 2.07v18.699Zm3.137-.565h.565c1.066 0 2.07.188 3.012.69.94-.502 1.945-.69 3.011-.69h.565V15.749l-3.576-3.451-3.577 3.451v10.353Zm4.643 1.443c.628-.188 1.255-.314 1.883-.314.69 0 1.568.189 2.51.377 1.568.314 3.325.69 4.956.376l.44-.062V14.996h1.945v14.808H18.69c-.314-.816-.816-1.631-1.506-2.259Zm-4.831-21.71 3.765-1.192 3.764 1.192V3.576L18 3.89l-1.82-2.133-1.82 2.133-1.882-.314v2.26l-.125-.001Zm11.608 5.961v15.122c.627.125 1.317.125 1.945.062V12.047c-.69-.063-1.318-.125-1.945-.25v-.001Zm59.482 7.843c0-.25.063-.564.188-.816.126-.25.314-.501.502-.627.44-.314.942-.44 1.444-.44.501 0 1.066.126 1.505.44.251.188.44.377.502.627.126.252.189.565.189.816v.753c0 .502 0 1.004-.377 1.38-.125.189-.314.314-.502.44.251.125.502.314.628.564.188.377.25.753.25 1.193v1.066c0 .502-.062 1.067-.564 1.506-.502.44-1.067.502-1.632.502-.501 0-1.066-.063-1.505-.502-.377-.314-.565-.816-.565-1.317v-.816h1.255v.502c0 .25.063.439.188.627.188.189.44.251.69.251.251 0 .44-.063.628-.188.25-.188.25-.502.25-.753v-.816c0-.25 0-.753-.376-1.066a1.265 1.265 0 0 0-.69-.189h-.376v-1.192h.376c.314 0 .627-.125.816-.313.188-.251.25-.502.25-.816v-.565c0-.25-.062-.564-.25-.753a1.06 1.06 0 0 0-.628-.188c-.376 0-.69.188-.753.565-.063.125-.063.25-.063.376v.565H83.57l-.127-.816Zm-45.176-1.757v5.585l2.133-4.518v-1.004h1.255v9.035H40.4v-5.584l-2.133 4.518v1.066h-1.255v-9.098h1.255Zm5.02 0h1.317l1.757 5.02h.063l1.694-5.02h1.255v9.036h-1.255V21.27h-.126l-1.38 4.078h-.69l-1.38-4.078h-.064v5.647h-1.317l.125-9.036.001.001Zm11.92 0v9.036h-1.254v-7.906h-1.694v7.906h-1.255v-9.036h4.203Zm1.57 0h3.827v1.255h-2.51v2.698h2.259v1.192h-2.259v2.698h2.573v1.255h-3.89v-9.098Zm5.145 0h1.945c.564 0 1.255 0 1.82.565.564.628.627 1.38.627 2.07v.252c0 .502-.063 1.255-.565 1.82-.502.564-1.192.69-1.757.69h-.753v3.576h-1.255l-.062-8.973Zm6.839 0v5.585l2.133-4.518v-1.004h1.255v9.035h-1.255v-5.584l-2.133 4.518v1.066h-1.255v-9.098h1.255Zm9.223 9.036h-1.317v-3.89h-.816l-1.13 3.89h-1.38l1.318-4.204c-.251-.126-.44-.251-.628-.502a3.562 3.562 0 0 1-.439-1.38v-.69c0-.566.126-1.13.502-1.57.628-.752 1.569-.69 2.196-.69h1.632l.062 9.036Zm-1.882-7.906c-.251 0-.565 0-.816.25-.188.252-.313.503-.313.816v.628c0 .376 0 .565.25.816.189.188.502.313.816.313h.69v-2.823h-.627Zm-12.926 3.2h.69c.314 0 .628-.126.88-.314.25-.314.25-.627.25-.941v-.628c0-.313 0-.753-.376-1.066-.314-.251-.628-.251-1.004-.251h-.44v3.2Zm27.357-4.33v3.89h1.757v-3.89h1.255v9.036H92.29v-4.016h-1.757v4.016h-1.255v-9.036h1.255Zm7.718 9.036-.44-1.945h-1.63l-.44 1.945h-1.255l1.945-9.036h1.13l1.945 9.036h-1.255Zm3.514-9.036v3.89h1.757v-3.89h1.254v9.036h-1.254v-4.016h-1.757v4.016h-1.255v-9.036h1.255Zm5.898 0v5.585l2.133-4.518v-1.004h1.255v9.035h-1.318v-5.647l-2.133 4.518v1.067h-1.255v-9.036h1.318Zm6.274 0v5.585l2.134-4.518v-1.004h1.254v9.035h-1.254v-5.647l-2.134 4.518v1.067h-1.255v-9.036h1.255Zm2.636-2.008c0 .377-.126.754-.377 1.004-.251.251-.69.377-1.192.377s-.941-.126-1.192-.377c-.251-.25-.377-.627-.377-1.004v-.188h1.004v.126c0 .125.063.25.126.376.125.063.251.126.376.126.126 0 .251 0 .377-.126a.301.301 0 0 0 .125-.376v-.126h1.004l.126.188Zm-19.577 4.518-.69 3.451h1.38l-.69-3.451Z" clip-rule="evenodd"/>
  </g>
  <defs>
    <clipPath id="a">
      <path fill="#fff" d="M0 0h32v32H0z"/>
    </clipPath>
  </defs>
</svg>
