<svg width="1280" height="540" viewBox="0 0 1280 540" fill="none" xmlns="http://www.w3.org/2000/svg">
<g clip-path="url(#clip0_34_2)">
<g opacity="0.6">
<path fill-rule="evenodd" clip-rule="evenodd" d="M1240.19 -664.606L1240.17 -664.569L1243.69 -663.386L320.371 935.547L317.585 933.088L317.563 933.125L315.891 931.589L313.661 929.6L307.028 923.605L304.82 921.578L298.98 916.174L293.93 911.424L291.781 909.381L289.632 907.323L285.361 903.204L283.239 901.128L275.227 893.205L270.813 888.772C267.416 885.315 264.043 881.834 260.696 878.328L258.291 875.824L256.276 873.677L248.242 865.031L246.241 862.86L244.254 860.679L242.293 858.497L233.195 848.253L230.103 844.716C226.394 840.438 222.726 836.124 219.099 831.776L217.273 829.59C213.533 825.085 209.836 820.543 206.185 815.965L205.628 815.28L205.282 814.832C201.395 809.943 197.553 805.017 193.758 800.055L193.584 799.839L193.243 799.411L192.713 798.708L191.811 797.518C-1102.5 929.6 -985 -405.5 -58.999 -268.5C136.196 -606.527 694.852 -751.552 1059.83 -705.656L1061.32 -705.482L1062.2 -705.374L1062.74 -705.293L1063.01 -705.251C1069.2 -704.449 1075.39 -703.591 1081.57 -702.661L1082.13 -702.586L1083 -702.446C1088.79 -701.577 1094.58 -700.648 1100.35 -699.658L1103.16 -699.17C1108.74 -698.205 1114.3 -697.178 1119.87 -696.112L1124.48 -695.203L1137.9 -692.448L1140.77 -691.84L1143.65 -691.21L1146.54 -690.569L1158.04 -687.93L1160.91 -687.259L1164.28 -686.429C1168.98 -685.283 1173.69 -684.118 1178.38 -682.891L1184.43 -681.285L1195.3 -678.315L1198.16 -677.516L1203.86 -675.877L1206.72 -675.046L1209.57 -674.206L1216.21 -672.209L1223.81 -669.854L1226.67 -668.956L1235.18 -666.21L1238.01 -665.274L1240.19 -664.606ZM1255.39 96.937L1255.42 96.983L1004.83 198.95L1160.13 -69.987L1160.02 -70.051C1255.09 -235.792 1350.51 -401.207 1446.11 -566.758C1616.82 -459.062 1741.81 -304.806 1814 -130.306C1627.81 -54.53 1441.6 21.2177 1255.39 96.937ZM994.051 796.535L994.462 796.541L1034.52 1166.61C857.249 1183.76 673.514 1151 505.282 1062.51L812.03 531.483C812.03 531.483 813.081 532.056 811.977 531.402L941.484 307.131L970.235 576.27L994.051 796.535ZM1269.26 998.66L1183.28 370.488L1773.79 142.372C1794.89 312.397 1762.89 490.343 1670.66 650.048C1575.87 814.205 1432.59 932.925 1269.26 998.66Z" fill="#1A1A1A"/>
</g>
</g>
<defs>
<clipPath id="clip0_34_2">
<rect width="1280" height="540" fill="white"/>
</clipPath>
</defs>
</svg>
